<?xml version="1.0" encoding="UTF-8"?>
<svg width="234px" height="28px" viewBox="0 0 234 28" version="1.1" xmlns="http://www.w3.org/2000/svg" xmlns:xlink="http://www.w3.org/1999/xlink">
    <!-- Generator: Sketch 51.2 (57519) - http://www.bohemiancoding.com/sketch -->
    <title>footer-logo</title>
    <desc>Created with Sketch.</desc>
    <defs></defs>
    <g id="Page-1" stroke="none" stroke-width="1" fill="none" fill-rule="evenodd">
        <g id="footer-logo">
            <path d="M0,21.72 L0,0 L3.93,0 L3.93,8.58 C4.2700017,8.0599974 4.82499615,7.59500205 5.595,7.185 C6.36500385,6.77499795 7.2999945,6.57 8.4,6.57 C9.4800054,6.57 10.4399958,6.76499805 11.28,7.155 C12.1200042,7.54500195 12.834997,8.08499655 13.425,8.775 C14.0150029,9.46500345 14.4599985,10.2799953 14.76,11.22 C15.0600015,12.1600047 15.21,13.1799945 15.21,14.28 C15.21,15.4000056 15.0450017,16.4349952 14.715,17.385 C14.3849984,18.3350047 13.915003,19.1599965 13.305,19.86 C12.694997,20.5600035 11.9600043,21.104998 11.1,21.495 C10.2399957,21.8850019 9.2900052,22.08 8.25,22.08 C7.2299949,22.08 6.34500375,21.880002 5.595,21.48 C4.84499625,21.079998 4.270002,20.5600032 3.87,19.92 L3.87,21.72 L0,21.72 Z M11.22,14.31 C11.22,12.9499932 10.8650036,11.9150035 10.155,11.205 C9.44499645,10.4949965 8.5800051,10.14 7.56,10.14 C7.0599975,10.14 6.58500225,10.2299991 6.135,10.41 C5.68499775,10.5900009 5.29500165,10.8549983 4.965,11.205 C4.63499835,11.5550017 4.370001,11.9899974 4.17,12.51 C3.969999,13.0300026 3.87,13.6299966 3.87,14.31 C3.87,14.9700033 3.969999,15.5599974 4.17,16.08 C4.370001,16.6000026 4.63499835,17.0399982 4.965,17.4 C5.29500165,17.7600018 5.68499775,18.0349991 6.135,18.225 C6.58500225,18.415001 7.0599975,18.51 7.56,18.51 C8.5800051,18.51 9.44499645,18.1500036 10.155,17.43 C10.8650036,16.7099964 11.22,15.6700068 11.22,14.31 Z M27.9755172,21.72 C27.935517,21.5599992 27.9055173,21.3300015 27.8855172,21.03 C27.8655171,20.7299985 27.8555172,20.4300015 27.8555172,20.13 C27.4555152,20.8300035 26.8705211,21.3349984 26.1005172,21.645 C25.3305134,21.9550016 24.5555211,22.11 23.7755172,22.11 C22.8755127,22.11 22.0805207,21.9550016 21.3905172,21.645 C20.7005138,21.3349984 20.1155196,20.9200026 19.6355172,20.4 C19.1555148,19.8799974 18.7905185,19.2650036 18.5405172,18.555 C18.290516,17.8449964 18.1655172,17.090004 18.1655172,16.29 L18.1655172,6.96 L22.1555172,6.96 L22.1555172,15.48 C22.1555172,16.3200042 22.3705151,17.0249971 22.8005172,17.595 C23.2305194,18.1650029 23.9155125,18.45 24.8555172,18.45 C25.7555217,18.45 26.4455148,18.1800027 26.9255172,17.64 C27.4055196,17.0999973 27.6455172,16.4000043 27.6455172,15.54 L27.6455172,6.96 L31.6355172,6.96 L31.6355172,19.05 C31.6355172,19.6300029 31.6505171,20.1549977 31.6805172,20.625 C31.7105174,21.0950024 31.745517,21.4599987 31.7855172,21.72 L27.9755172,21.72 Z M39.9010345,21.72 L35.9110345,21.72 L35.9110345,6.96 L39.7810345,6.96 L39.7810345,8.79 C40.2410368,8.0299962 40.8660305,7.4700018 41.6560345,7.11 C42.4460384,6.7499982 43.2410305,6.57 44.0410345,6.57 C44.9610391,6.57 45.7560311,6.72499845 46.4260345,7.035 C47.0960378,7.34500155 47.6510323,7.7599974 48.0910345,8.28 C48.5310367,8.8000026 48.8560334,9.4199964 49.0660345,10.14 C49.2760355,10.8600036 49.3810345,11.619996 49.3810345,12.42 L49.3810345,21.72 L45.3910345,21.72 L45.3910345,13.11 C45.3910345,12.2699958 45.1760366,11.5700028 44.7460345,11.01 C44.3160323,10.4499972 43.6210393,10.17 42.6610345,10.17 C41.7810301,10.17 41.1010369,10.4649971 40.6210345,11.055 C40.1410321,11.6450029 39.9010345,12.3699957 39.9010345,13.23 L39.9010345,21.72 Z M53.4465517,21.72 L53.4465517,0 L57.3765517,0 L57.3765517,8.58 C57.7165534,8.0599974 58.2715479,7.59500205 59.0415517,7.185 C59.8115556,6.77499795 60.7465462,6.57 61.8465517,6.57 C62.9265571,6.57 63.8865475,6.76499805 64.7265517,7.155 C65.5665559,7.54500195 66.2815488,8.08499655 66.8715517,8.775 C67.4615547,9.46500345 67.9065502,10.2799953 68.2065517,11.22 C68.5065532,12.1600047 68.6565517,13.1799945 68.6565517,14.28 C68.6565517,15.4000056 68.4915534,16.4349952 68.1615517,17.385 C67.8315501,18.3350047 67.3615548,19.1599965 66.7515517,19.86 C66.1415487,20.5600035 65.406556,21.104998 64.5465517,21.495 C63.6865474,21.8850019 62.7365569,22.08 61.6965517,22.08 C60.6765466,22.08 59.7915555,21.880002 59.0415517,21.48 C58.291548,21.079998 57.7165537,20.5600032 57.3165517,19.92 L57.3165517,21.72 L53.4465517,21.72 Z M64.6665517,14.31 C64.6665517,12.9499932 64.3115553,11.9150035 63.6015517,11.205 C62.8915482,10.4949965 62.0265568,10.14 61.0065517,10.14 C60.5065492,10.14 60.031554,10.2299991 59.5815517,10.41 C59.1315495,10.5900009 58.7415534,10.8549983 58.4115517,11.205 C58.0815501,11.5550017 57.8165527,11.9899974 57.6165517,12.51 C57.4165507,13.0300026 57.3165517,13.6299966 57.3165517,14.31 C57.3165517,14.9700033 57.4165507,15.5599974 57.6165517,16.08 C57.8165527,16.6000026 58.0815501,17.0399982 58.4115517,17.4 C58.7415534,17.7600018 59.1315495,18.0349991 59.5815517,18.225 C60.031554,18.415001 60.5065492,18.51 61.0065517,18.51 C62.0265568,18.51 62.8915482,18.1500036 63.6015517,17.43 C64.3115553,16.7099964 64.6665517,15.6700068 64.6665517,14.31 Z M81.422069,21.72 C81.3820688,21.5599992 81.3520691,21.3300015 81.332069,21.03 C81.3120689,20.7299985 81.302069,20.4300015 81.302069,20.13 C80.902067,20.8300035 80.3170728,21.3349984 79.547069,21.645 C78.7770651,21.9550016 78.0020729,22.11 77.222069,22.11 C76.3220645,22.11 75.5270724,21.9550016 74.837069,21.645 C74.1470655,21.3349984 73.5620714,20.9200026 73.082069,20.4 C72.6020666,19.8799974 72.2370702,19.2650036 71.987069,18.555 C71.7370677,17.8449964 71.612069,17.090004 71.612069,16.29 L71.612069,6.96 L75.602069,6.96 L75.602069,15.48 C75.602069,16.3200042 75.8170668,17.0249971 76.247069,17.595 C76.6770711,18.1650029 77.3620643,18.45 78.302069,18.45 C79.2020735,18.45 79.8920666,18.1800027 80.372069,17.64 C80.8520714,17.0999973 81.092069,16.4000043 81.092069,15.54 L81.092069,6.96 L85.082069,6.96 L85.082069,19.05 C85.082069,19.6300029 85.0970688,20.1549977 85.127069,20.625 C85.1570691,21.0950024 85.1920688,21.4599987 85.232069,21.72 L81.422069,21.72 Z M93.3475862,21.72 L89.3575862,21.72 L89.3575862,6.96 L93.2275862,6.96 L93.2275862,8.79 C93.6875885,8.0299962 94.3125822,7.4700018 95.1025862,7.11 C95.8925902,6.7499982 96.6875822,6.57 97.4875862,6.57 C98.4075908,6.57 99.2025828,6.72499845 99.8725862,7.035 C100.54259,7.34500155 101.097584,7.7599974 101.537586,8.28 C101.977588,8.8000026 102.302585,9.4199964 102.512586,10.14 C102.722587,10.8600036 102.827586,11.619996 102.827586,12.42 L102.827586,21.72 L98.8375862,21.72 L98.8375862,13.11 C98.8375862,12.2699958 98.6225884,11.5700028 98.1925862,11.01 C97.762584,10.4499972 97.067591,10.17 96.1075862,10.17 C95.2275818,10.17 94.5475886,10.4649971 94.0675862,11.055 C93.5875838,11.6450029 93.3475862,12.3699957 93.3475862,13.23 L93.3475862,21.72 Z" id="bunbunbakeshop" fill="#FFFFFF"></path>
            <path d="M107.163103,21.72 L107.163103,0 L109.953103,0 L109.953103,9.33 C110.293105,8.6899968 110.873099,8.1200025 111.693103,7.62 C112.513108,7.1199975 113.523097,6.87 114.723103,6.87 C115.823109,6.87 116.783099,7.06499805 117.603103,7.455 C118.423108,7.84500195 119.113101,8.38499655 119.673103,9.075 C120.233106,9.76500345 120.653102,10.5699954 120.933103,11.49 C121.213105,12.4100046 121.353103,13.3899948 121.353103,14.43 C121.353103,15.5100054 121.203105,16.5149953 120.903103,17.445 C120.603102,18.3750046 120.168106,19.1849965 119.598103,19.875 C119.028101,20.5650035 118.328108,21.109998 117.498103,21.51 C116.668099,21.910002 115.713109,22.11 114.633103,22.11 C113.553098,22.11 112.618107,21.8900022 111.828103,21.45 C111.038099,21.0099978 110.413106,20.4000039 109.953103,19.62 L109.953103,21.72 L107.163103,21.72 Z M118.473103,14.43 C118.473103,12.8699922 118.093107,11.6350045 117.333103,10.725 C116.5731,9.81499545 115.53311,9.36 114.213103,9.36 C113.5931,9.36 113.018106,9.4799988 112.488103,9.72 C111.958101,9.9600012 111.503105,10.2949979 111.123103,10.725 C110.743102,11.1550022 110.448104,11.6849969 110.238103,12.315 C110.028102,12.9450031 109.923103,13.6499961 109.923103,14.43 C109.923103,15.2100039 110.028102,15.9199968 110.238103,16.56 C110.448104,17.2000032 110.743102,17.7449977 111.123103,18.195 C111.503105,18.6450023 111.958101,18.9899988 112.488103,19.23 C113.018106,19.4700012 113.5931,19.59 114.213103,19.59 C115.51311,19.59 116.5481,19.1200047 117.318103,18.18 C118.088107,17.2399953 118.473103,15.9900078 118.473103,14.43 Z M124.069156,17.85 C124.069156,17.2099968 124.179155,16.6350026 124.399156,16.125 C124.619157,15.6149975 124.924154,15.1800018 125.314156,14.82 C125.704158,14.4599982 126.169153,14.1700011 126.709156,13.95 C127.249158,13.7299989 127.829153,13.5700005 128.449156,13.47 L132.349156,12.9 C132.789158,12.8399997 133.084155,12.710001 133.234156,12.51 C133.384157,12.309999 133.459156,12.0800013 133.459156,11.82 C133.459156,11.1199965 133.214158,10.5150026 132.724156,10.005 C132.234153,9.49499745 131.439161,9.24 130.339156,9.24 C129.339151,9.24 128.569158,9.51499725 128.029156,10.065 C127.489153,10.6150028 127.169156,11.3099958 127.069156,12.15 L124.369156,11.52 C124.449156,10.8399966 124.654154,10.2100029 124.984156,9.63 C125.314157,9.0499971 125.739153,8.55500205 126.259156,8.145 C126.779158,7.73499795 127.384152,7.41500115 128.074156,7.185 C128.764159,6.95499885 129.499152,6.84 130.279156,6.84 C131.359161,6.84 132.279152,6.98499855 133.039156,7.275 C133.79916,7.56500145 134.419153,7.9499976 134.899156,8.43 C135.379158,8.9100024 135.729155,9.4699968 135.949156,10.11 C136.169157,10.7500032 136.279156,11.4199965 136.279156,12.12 L136.279156,19.35 C136.279156,19.9900032 136.299156,20.4999981 136.339156,20.88 C136.379156,21.2600019 136.419156,21.5399991 136.459156,21.72 L133.699156,21.72 C133.659156,21.5399991 133.624156,21.3000015 133.594156,21 C133.564156,20.6999985 133.549156,20.2900026 133.549156,19.77 C133.389155,20.0300013 133.179157,20.2999986 132.919156,20.58 C132.659154,20.8600014 132.339158,21.1199988 131.959156,21.36 C131.579154,21.6000012 131.134158,21.7949993 130.624156,21.945 C130.114153,22.0950008 129.539159,22.17 128.899156,22.17 C128.159152,22.17 127.494159,22.0500012 126.904156,21.81 C126.314153,21.5699988 125.809158,21.255002 125.389156,20.865 C124.969154,20.474998 124.644157,20.0200026 124.414156,19.5 C124.184155,18.9799974 124.069156,18.4300029 124.069156,17.85 Z M129.289156,19.8 C129.869159,19.8 130.414153,19.7250007 130.924156,19.575 C131.434158,19.4249993 131.874154,19.1850017 132.244156,18.855 C132.614158,18.5249984 132.909155,18.0850028 133.129156,17.535 C133.349157,16.9849972 133.459156,16.3200039 133.459156,15.54 L133.459156,14.88 L129.049156,15.54 C128.449153,15.6400005 127.949158,15.8649983 127.549156,16.215 C127.149154,16.5650017 126.949156,17.0599968 126.949156,17.7 C126.949156,18.2400027 127.159154,18.7249978 127.579156,19.155 C127.999158,19.5850021 128.569152,19.8 129.289156,19.8 Z M147.455208,13.38 L153.725208,21.72 L150.185208,21.72 L145.475208,15.36 L143.465208,17.37 L143.465208,21.72 L140.675208,21.72 L140.675208,0 L143.465208,0 L143.465208,13.68 L149.705208,7.29 L153.605208,7.29 L147.455208,13.38 Z M168.26126,17.61 C168.061259,18.2500032 167.766262,18.8449973 167.37626,19.395 C166.986258,19.9450027 166.516263,20.424998 165.96626,20.835 C165.416258,21.2450021 164.791264,21.5699988 164.09126,21.81 C163.391257,22.0500012 162.621265,22.17 161.78126,22.17 C160.821256,22.17 159.901265,22.0000017 159.02126,21.66 C158.141256,21.3199983 157.366264,20.8200033 156.69626,20.16 C156.026257,19.4999967 155.496262,18.6900048 155.10626,17.73 C154.716258,16.7699952 154.52126,15.6800061 154.52126,14.46 C154.52126,13.3199943 154.711258,12.2850047 155.09126,11.355 C155.471262,10.4249954 155.976257,9.62500335 156.60626,8.955 C157.236264,8.28499665 157.971256,7.76500185 158.81126,7.395 C159.651265,7.02499815 160.521256,6.84 161.42126,6.84 C162.521266,6.84 163.506256,7.02499815 164.37626,7.395 C165.246265,7.76500185 165.971257,8.2799967 166.55126,8.94 C167.131263,9.6000033 167.576259,10.3949954 167.88626,11.325 C168.196262,12.2550047 168.35126,13.2799944 168.35126,14.4 C168.35126,14.5800009 168.34626,14.7499992 168.33626,14.91 C168.32626,15.0700008 168.311261,15.1999995 168.29126,15.3 L157.43126,15.3 C157.45126,15.9400032 157.571259,16.5299973 157.79126,17.07 C158.011262,17.6100027 158.316258,18.074998 158.70626,18.465 C159.096262,18.8550019 159.556258,19.1549989 160.08626,19.365 C160.616263,19.5750011 161.181257,19.68 161.78126,19.68 C162.961266,19.68 163.861257,19.4000028 164.48126,18.84 C165.101264,18.2799972 165.551259,17.5900041 165.83126,16.77 L168.26126,17.61 Z M165.41126,13.02 C165.37126,11.9799948 165.021264,11.1050035 164.36126,10.395 C163.701257,9.68499645 162.731267,9.33 161.45126,9.33 C160.851257,9.33 160.316263,9.43499895 159.84626,9.645 C159.376258,9.85500105 158.976262,10.1349983 158.64626,10.485 C158.316259,10.8350017 158.051261,11.2299978 157.85126,11.67 C157.651259,12.1100022 157.541261,12.5599977 157.52126,13.02 L165.41126,13.02 Z M173.167313,17.07 C173.267313,17.8300038 173.59731,18.4699974 174.157313,18.99 C174.717316,19.5100026 175.507308,19.77 176.527313,19.77 C177.327317,19.77 177.937311,19.5800019 178.357313,19.2 C178.777315,18.8199981 178.987313,18.3700026 178.987313,17.85 C178.987313,17.3899977 178.827314,17.0000016 178.507313,16.68 C178.187311,16.3599984 177.727316,16.1300007 177.127313,15.99 L174.667313,15.45 C173.527307,15.2099988 172.642316,14.7300036 172.012313,14.01 C171.38231,13.2899964 171.067313,12.4200051 171.067313,11.4 C171.067313,10.7799969 171.202311,10.1950027 171.472313,9.645 C171.742314,9.09499725 172.10731,8.6100021 172.567313,8.19 C173.027315,7.7699979 173.57231,7.4400012 174.202313,7.2 C174.832316,6.9599988 175.497309,6.84 176.197313,6.84 C177.177318,6.84 178.002309,6.9799986 178.672313,7.26 C179.342316,7.5400014 179.887311,7.88499795 180.307313,8.295 C180.727315,8.70500205 181.042312,9.1299978 181.252313,9.57 C181.462314,10.0100022 181.607312,10.3899984 181.687313,10.71 L179.197313,11.64 C179.157313,11.4599991 179.087313,11.2300014 178.987313,10.95 C178.887312,10.6699986 178.727314,10.4050012 178.507313,10.155 C178.287312,9.90499875 177.987315,9.6900009 177.607313,9.51 C177.227311,9.3299991 176.757316,9.24 176.197313,9.24 C175.477309,9.24 174.897315,9.43499805 174.457313,9.825 C174.017311,10.215002 173.797313,10.6599975 173.797313,11.16 C173.797313,12.0800046 174.347307,12.6599988 175.447313,12.9 L177.787313,13.41 C179.107319,13.6900014 180.102309,14.2049962 180.772313,14.955 C181.442316,15.7050038 181.777313,16.6199946 181.777313,17.7 C181.777313,18.2200026 181.667314,18.7399974 181.447313,19.26 C181.227312,19.7800026 180.902315,20.2599978 180.472313,20.7 C180.042311,21.1400022 179.497316,21.4949987 178.837313,21.765 C178.177309,22.0350014 177.397317,22.17 176.497313,22.17 C175.497308,22.17 174.642316,22.0300014 173.932313,21.75 C173.222309,21.4699986 172.632315,21.1200021 172.162313,20.7 C171.69231,20.2799979 171.332314,19.8250025 171.082313,19.335 C170.832311,18.8449976 170.677313,18.3900021 170.617313,17.97 L173.167313,17.07 Z M188.363365,21.72 L185.543365,21.72 L185.543365,0 L188.363365,0 L188.363365,8.97 C188.883368,8.2099962 189.533361,7.6700016 190.313365,7.35 C191.093369,7.0299984 191.903361,6.87 192.743365,6.87 C193.603369,6.87 194.358362,7.01499855 195.008365,7.305 C195.658368,7.59500145 196.198363,7.99499745 196.628365,8.505 C197.058367,9.01500255 197.378364,9.6199965 197.588365,10.32 C197.798366,11.0200035 197.903365,11.769996 197.903365,12.57 L197.903365,21.72 L195.083365,21.72 L195.083365,13.05 C195.083365,12.5499975 195.028366,12.0800022 194.918365,11.64 C194.808364,11.1999978 194.618366,10.8150017 194.348365,10.485 C194.078364,10.1549984 193.728367,9.89500095 193.298365,9.705 C192.868363,9.51499905 192.343368,9.42 191.723365,9.42 C191.183362,9.42 190.708367,9.519999 190.298365,9.72 C189.888363,9.920001 189.543366,10.1899983 189.263365,10.53 C188.983364,10.8700017 188.768366,11.2699977 188.618365,11.73 C188.468364,12.1900023 188.383365,12.6899973 188.363365,13.23 L188.363365,21.72 Z M208.599417,6.84 C209.679423,6.84 210.669413,7.03499805 211.569417,7.425 C212.469422,7.81500195 213.249414,8.3499966 213.909417,9.03 C214.569421,9.7100034 215.079416,10.5149953 215.439417,11.445 C215.799419,12.3750046 215.979417,13.3899945 215.979417,14.49 C215.979417,15.5900055 215.799419,16.6099953 215.439417,17.55 C215.079416,18.4900047 214.569421,19.2999966 213.909417,19.98 C213.249414,20.6600034 212.469422,21.1949981 211.569417,21.585 C210.669413,21.975002 209.679423,22.17 208.599417,22.17 C207.519412,22.17 206.529422,21.975002 205.629417,21.585 C204.729413,21.1949981 203.949421,20.6600034 203.289417,19.98 C202.629414,19.2999966 202.119419,18.4900047 201.759417,17.55 C201.399416,16.6099953 201.219417,15.5900055 201.219417,14.49 C201.219417,13.3899945 201.399416,12.3750046 201.759417,11.445 C202.119419,10.5149953 202.629414,9.7100034 203.289417,9.03 C203.949421,8.3499966 204.729413,7.81500195 205.629417,7.425 C206.529422,7.03499805 207.519412,6.84 208.599417,6.84 Z M208.599417,19.65 C209.19942,19.65 209.769415,19.5400011 210.309417,19.32 C210.84942,19.0999989 211.329415,18.7700022 211.749417,18.33 C212.169419,17.8899978 212.499416,17.3500032 212.739417,16.71 C212.979419,16.0699968 213.099417,15.3300042 213.099417,14.49 C213.099417,13.6499958 212.979419,12.9150032 212.739417,12.285 C212.499416,11.6549969 212.169419,11.1200022 211.749417,10.68 C211.329415,10.2399978 210.84942,9.9100011 210.309417,9.69 C209.769415,9.4699989 209.19942,9.36 208.599417,9.36 C207.999414,9.36 207.42942,9.4699989 206.889417,9.69 C206.349415,9.9100011 205.869419,10.2399978 205.449417,10.68 C205.029415,11.1200022 204.699419,11.6549969 204.459417,12.285 C204.219416,12.9150032 204.099417,13.6499958 204.099417,14.49 C204.099417,15.3300042 204.219416,16.0699968 204.459417,16.71 C204.699419,17.3500032 205.029415,17.8899978 205.449417,18.33 C205.869419,18.7700022 206.349415,19.0999989 206.889417,19.32 C207.42942,19.5400011 207.999414,19.65 208.599417,19.65 Z M219.59547,27.42 L219.59547,7.29 L222.32547,7.29 L222.32547,9.54 C222.725472,8.8199964 223.335466,8.2100025 224.15547,7.71 C224.975474,7.2099975 225.975464,6.96 227.15547,6.96 C228.235475,6.96 229.190466,7.15499805 230.02047,7.545 C230.850474,7.93500195 231.540467,8.4699966 232.09047,9.15 C232.640472,9.8300034 233.060468,10.6299954 233.35047,11.55 C233.640471,12.4700046 233.78547,13.4499948 233.78547,14.49 C233.78547,15.5700054 233.635471,16.5699954 233.33547,17.49 C233.035468,18.4100046 232.595473,19.2149966 232.01547,19.905 C231.435467,20.5950035 230.730474,21.1349981 229.90047,21.525 C229.070466,21.915002 228.125475,22.11 227.06547,22.11 C225.945464,22.11 224.985474,21.8800023 224.18547,21.42 C223.385466,20.9599977 222.785472,20.4100032 222.38547,19.77 L222.38547,27.42 L219.59547,27.42 Z M230.90547,14.49 C230.90547,13.7699964 230.805471,13.1050031 230.60547,12.495 C230.405469,11.8849969 230.125471,11.3550022 229.76547,10.905 C229.405468,10.4549977 228.960472,10.1000013 228.43047,9.84 C227.900467,9.5799987 227.305473,9.45 226.64547,9.45 C226.005466,9.45 225.420472,9.5799987 224.89047,9.84 C224.360467,10.1000013 223.905472,10.4549977 223.52547,10.905 C223.145468,11.3550022 222.855471,11.8849969 222.65547,12.495 C222.455469,13.1050031 222.35547,13.7699964 222.35547,14.49 C222.35547,15.2300037 222.455469,15.9149969 222.65547,16.545 C222.855471,17.1750031 223.145468,17.7149978 223.52547,18.165 C223.905472,18.6150022 224.360467,18.9649987 224.89047,19.215 C225.420472,19.4650012 226.005466,19.59 226.64547,19.59 C227.305473,19.59 227.895467,19.4650012 228.41547,19.215 C228.935472,18.9649987 229.380468,18.6150022 229.75047,18.165 C230.120472,17.7149978 230.405469,17.1750031 230.60547,16.545 C230.805471,15.9149969 230.90547,15.2300037 230.90547,14.49 Z" id="Combined-Shape" fill="#CDE9DD"></path>
        </g>
    </g>
</svg>