<?xml version="1.0" encoding="UTF-8"?>
<svg width="234px" height="28px" viewBox="0 0 234 28" version="1.1" xmlns="http://www.w3.org/2000/svg" xmlns:xlink="http://www.w3.org/1999/xlink">
    <!-- Generator: Sketch 51.2 (57519) - http://www.bohemiancoding.com/sketch -->
    <title>Group 3</title>
    <desc>Created with Sketch.</desc>
    <defs></defs>
    <g id="Page-1" stroke="none" stroke-width="1" fill="none" fill-rule="evenodd">
        <g id="Group-3">
            <path d="M0.13,22 L0.13,0.28 L4.06,0.28 L4.06,8.86 C4.4000017,8.3399974 4.95499615,7.87500205 5.725,7.465 C6.49500385,7.05499795 7.4299945,6.85 8.53,6.85 C9.6100054,6.85 10.5699958,7.04499805 11.41,7.435 C12.2500042,7.82500195 12.964997,8.36499655 13.555,9.055 C14.1450029,9.74500345 14.5899985,10.5599953 14.89,11.5 C15.1900015,12.4400047 15.34,13.4599945 15.34,14.56 C15.34,15.6800056 15.1750016,16.7149953 14.845,17.665 C14.5149983,18.6150047 14.045003,19.4399965 13.435,20.14 C12.8249969,20.8400035 12.0900043,21.3849981 11.23,21.775 C10.3699957,22.165002 9.4200052,22.36 8.38,22.36 C7.3599949,22.36 6.47500375,22.160002 5.725,21.76 C4.97499625,21.359998 4.400002,20.8400032 4,20.2 L4,22 L0.13,22 Z M11.35,14.59 C11.35,13.2299932 10.9950036,12.1950035 10.285,11.485 C9.57499645,10.7749965 8.7100051,10.42 7.69,10.42 C7.1899975,10.42 6.71500225,10.5099991 6.265,10.69 C5.81499775,10.8700009 5.42500165,11.1349983 5.095,11.485 C4.76499835,11.8350017 4.500001,12.2699974 4.3,12.79 C4.099999,13.3100026 4,13.9099966 4,14.59 C4,15.2500033 4.099999,15.8399974 4.3,16.36 C4.500001,16.8800026 4.76499835,17.3199982 5.095,17.68 C5.42500165,18.0400018 5.81499775,18.314999 6.265,18.505 C6.71500225,18.695001 7.1899975,18.79 7.69,18.79 C8.7100051,18.79 9.57499645,18.4300036 10.285,17.71 C10.9950036,16.9899964 11.35,15.9500068 11.35,14.59 Z M28.1055172,22 C28.065517,21.8399992 28.0355173,21.6100015 28.0155172,21.31 C27.9955171,21.0099985 27.9855172,20.7100015 27.9855172,20.41 C27.5855152,21.1100035 27.0005211,21.6149985 26.2305172,21.925 C25.4605134,22.2350015 24.6855211,22.39 23.9055172,22.39 C23.0055127,22.39 22.2105207,22.2350015 21.5205172,21.925 C20.8305138,21.6149985 20.2455196,21.2000026 19.7655172,20.68 C19.2855148,20.1599974 18.9205185,19.5450036 18.6705172,18.835 C18.420516,18.1249964 18.2955172,17.370004 18.2955172,16.57 L18.2955172,7.24 L22.2855172,7.24 L22.2855172,15.76 C22.2855172,16.6000042 22.5005151,17.3049971 22.9305172,17.875 C23.3605194,18.4450029 24.0455125,18.73 24.9855172,18.73 C25.8855217,18.73 26.5755148,18.4600027 27.0555172,17.92 C27.5355196,17.3799973 27.7755172,16.6800043 27.7755172,15.82 L27.7755172,7.24 L31.7655172,7.24 L31.7655172,19.33 C31.7655172,19.9100029 31.7805171,20.4349976 31.8105172,20.905 C31.8405174,21.3750024 31.875517,21.7399987 31.9155172,22 L28.1055172,22 Z M40.0310345,22 L36.0410345,22 L36.0410345,7.24 L39.9110345,7.24 L39.9110345,9.07 C40.3710368,8.3099962 40.9960305,7.7500018 41.7860345,7.39 C42.5760384,7.0299982 43.3710305,6.85 44.1710345,6.85 C45.0910391,6.85 45.8860311,7.00499845 46.5560345,7.315 C47.2260378,7.62500155 47.7810323,8.0399974 48.2210345,8.56 C48.6610367,9.0800026 48.9860334,9.6999964 49.1960345,10.42 C49.4060355,11.1400036 49.5110345,11.899996 49.5110345,12.7 L49.5110345,22 L45.5210345,22 L45.5210345,13.39 C45.5210345,12.5499958 45.3060366,11.8500028 44.8760345,11.29 C44.4460323,10.7299972 43.7510393,10.45 42.7910345,10.45 C41.9110301,10.45 41.2310369,10.7449971 40.7510345,11.335 C40.2710321,11.9250029 40.0310345,12.6499957 40.0310345,13.51 L40.0310345,22 Z M53.5765517,22 L53.5765517,0.28 L57.5065517,0.28 L57.5065517,8.86 C57.8465534,8.3399974 58.4015479,7.87500205 59.1715517,7.465 C59.9415556,7.05499795 60.8765462,6.85 61.9765517,6.85 C63.0565571,6.85 64.0165475,7.04499805 64.8565517,7.435 C65.6965559,7.82500195 66.4115488,8.36499655 67.0015517,9.055 C67.5915547,9.74500345 68.0365502,10.5599953 68.3365517,11.5 C68.6365532,12.4400047 68.7865517,13.4599945 68.7865517,14.56 C68.7865517,15.6800056 68.6215534,16.7149953 68.2915517,17.665 C67.9615501,18.6150047 67.4915548,19.4399965 66.8815517,20.14 C66.2715487,20.8400035 65.536556,21.3849981 64.6765517,21.775 C63.8165474,22.165002 62.8665569,22.36 61.8265517,22.36 C60.8065466,22.36 59.9215555,22.160002 59.1715517,21.76 C58.421548,21.359998 57.8465537,20.8400032 57.4465517,20.2 L57.4465517,22 L53.5765517,22 Z M64.7965517,14.59 C64.7965517,13.2299932 64.4415553,12.1950035 63.7315517,11.485 C63.0215482,10.7749965 62.1565568,10.42 61.1365517,10.42 C60.6365492,10.42 60.161554,10.5099991 59.7115517,10.69 C59.2615495,10.8700009 58.8715534,11.1349983 58.5415517,11.485 C58.2115501,11.8350017 57.9465527,12.2699974 57.7465517,12.79 C57.5465507,13.3100026 57.4465517,13.9099966 57.4465517,14.59 C57.4465517,15.2500033 57.5465507,15.8399974 57.7465517,16.36 C57.9465527,16.8800026 58.2115501,17.3199982 58.5415517,17.68 C58.8715534,18.0400018 59.2615495,18.314999 59.7115517,18.505 C60.161554,18.695001 60.6365492,18.79 61.1365517,18.79 C62.1565568,18.79 63.0215482,18.4300036 63.7315517,17.71 C64.4415553,16.9899964 64.7965517,15.9500068 64.7965517,14.59 Z M81.552069,22 C81.5120688,21.8399992 81.4820691,21.6100015 81.462069,21.31 C81.4420689,21.0099985 81.432069,20.7100015 81.432069,20.41 C81.032067,21.1100035 80.4470728,21.6149985 79.677069,21.925 C78.9070651,22.2350015 78.1320729,22.39 77.352069,22.39 C76.4520645,22.39 75.6570724,22.2350015 74.967069,21.925 C74.2770655,21.6149985 73.6920714,21.2000026 73.212069,20.68 C72.7320666,20.1599974 72.3670702,19.5450036 72.117069,18.835 C71.8670677,18.1249964 71.742069,17.370004 71.742069,16.57 L71.742069,7.24 L75.732069,7.24 L75.732069,15.76 C75.732069,16.6000042 75.9470668,17.3049971 76.377069,17.875 C76.8070711,18.4450029 77.4920643,18.73 78.432069,18.73 C79.3320735,18.73 80.0220666,18.4600027 80.502069,17.92 C80.9820714,17.3799973 81.222069,16.6800043 81.222069,15.82 L81.222069,7.24 L85.212069,7.24 L85.212069,19.33 C85.212069,19.9100029 85.2270688,20.4349976 85.257069,20.905 C85.2870691,21.3750024 85.3220688,21.7399987 85.362069,22 L81.552069,22 Z M93.4775862,22 L89.4875862,22 L89.4875862,7.24 L93.3575862,7.24 L93.3575862,9.07 C93.8175885,8.3099962 94.4425823,7.7500018 95.2325862,7.39 C96.0225902,7.0299982 96.8175822,6.85 97.6175862,6.85 C98.5375908,6.85 99.3325828,7.00499845 100.002586,7.315 C100.67259,7.62500155 101.227584,8.0399974 101.667586,8.56 C102.107588,9.0800026 102.432585,9.6999964 102.642586,10.42 C102.852587,11.1400036 102.957586,11.899996 102.957586,12.7 L102.957586,22 L98.9675862,22 L98.9675862,13.39 C98.9675862,12.5499958 98.7525883,11.8500028 98.3225862,11.29 C97.8925841,10.7299972 97.197591,10.45 96.2375862,10.45 C95.3575818,10.45 94.6775886,10.7449971 94.1975862,11.335 C93.7175838,11.9250029 93.4775862,12.6499957 93.4775862,13.51 L93.4775862,22 Z" id="bunbunbakeshop" fill="#5AB68D"></path>
            <path d="M107.293103,22 L107.293103,0.28 L110.083103,0.28 L110.083103,9.61 C110.423105,8.9699968 111.003099,8.4000025 111.823103,7.9 C112.643108,7.3999975 113.653097,7.15 114.853103,7.15 C115.953109,7.15 116.913099,7.34499805 117.733103,7.735 C118.553108,8.12500195 119.243101,8.66499655 119.803103,9.355 C120.363106,10.0450035 120.783102,10.8499954 121.063103,11.77 C121.343105,12.6900046 121.483103,13.6699948 121.483103,14.71 C121.483103,15.7900054 121.333105,16.7949954 121.033103,17.725 C120.733102,18.6550047 120.298106,19.4649966 119.728103,20.155 C119.158101,20.8450035 118.458108,21.389998 117.628103,21.79 C116.798099,22.190002 115.843109,22.39 114.763103,22.39 C113.683098,22.39 112.748107,22.1700022 111.958103,21.73 C111.168099,21.2899978 110.543106,20.6800039 110.083103,19.9 L110.083103,22 L107.293103,22 Z M118.603103,14.71 C118.603103,13.1499922 118.223107,11.9150046 117.463103,11.005 C116.7031,10.0949954 115.66311,9.64 114.343103,9.64 C113.7231,9.64 113.148106,9.7599988 112.618103,10 C112.088101,10.2400012 111.633105,10.5749979 111.253103,11.005 C110.873102,11.4350022 110.578104,11.9649968 110.368103,12.595 C110.158102,13.2250031 110.053103,13.9299961 110.053103,14.71 C110.053103,15.4900039 110.158102,16.1999968 110.368103,16.84 C110.578104,17.4800032 110.873102,18.0249977 111.253103,18.475 C111.633105,18.9250022 112.088101,19.2699988 112.618103,19.51 C113.148106,19.7500012 113.7231,19.87 114.343103,19.87 C115.64311,19.87 116.6781,19.4000047 117.448103,18.46 C118.218107,17.5199953 118.603103,16.2700078 118.603103,14.71 Z M124.199156,18.13 C124.199156,17.4899968 124.309155,16.9150025 124.529156,16.405 C124.749157,15.8949974 125.054154,15.4600018 125.444156,15.1 C125.834158,14.7399982 126.299153,14.4500011 126.839156,14.23 C127.379158,14.0099989 127.959153,13.8500005 128.579156,13.75 L132.479156,13.18 C132.919158,13.1199997 133.214155,12.990001 133.364156,12.79 C133.514157,12.589999 133.589156,12.3600013 133.589156,12.1 C133.589156,11.3999965 133.344158,10.7950025 132.854156,10.285 C132.364153,9.77499745 131.569161,9.52 130.469156,9.52 C129.469151,9.52 128.699158,9.79499725 128.159156,10.345 C127.619153,10.8950028 127.299156,11.5899958 127.199156,12.43 L124.499156,11.8 C124.579156,11.1199966 124.784154,10.4900029 125.114156,9.91 C125.444157,9.3299971 125.869153,8.83500205 126.389156,8.425 C126.909158,8.01499795 127.514152,7.69500115 128.204156,7.465 C128.894159,7.23499885 129.629152,7.12 130.409156,7.12 C131.489161,7.12 132.409152,7.26499855 133.169156,7.555 C133.92916,7.84500145 134.549153,8.2299976 135.029156,8.71 C135.509158,9.1900024 135.859155,9.7499968 136.079156,10.39 C136.299157,11.0300032 136.409156,11.6999965 136.409156,12.4 L136.409156,19.63 C136.409156,20.2700032 136.429156,20.7799981 136.469156,21.16 C136.509156,21.5400019 136.549156,21.8199991 136.589156,22 L133.829156,22 C133.789156,21.8199991 133.754156,21.5800015 133.724156,21.28 C133.694156,20.9799985 133.679156,20.5700026 133.679156,20.05 C133.519155,20.3100013 133.309157,20.5799986 133.049156,20.86 C132.789154,21.1400014 132.469158,21.3999988 132.089156,21.64 C131.709154,21.8800012 131.264158,22.0749992 130.754156,22.225 C130.244153,22.3750007 129.669159,22.45 129.029156,22.45 C128.289152,22.45 127.624159,22.3300012 127.034156,22.09 C126.444153,21.8499988 125.939158,21.535002 125.519156,21.145 C125.099154,20.754998 124.774157,20.3000026 124.544156,19.78 C124.314155,19.2599974 124.199156,18.7100029 124.199156,18.13 Z M129.419156,20.08 C129.999159,20.08 130.544153,20.0050008 131.054156,19.855 C131.564158,19.7049993 132.004154,19.4650016 132.374156,19.135 C132.744158,18.8049983 133.039155,18.3650028 133.259156,17.815 C133.479157,17.2649973 133.589156,16.6000039 133.589156,15.82 L133.589156,15.16 L129.179156,15.82 C128.579153,15.9200005 128.079158,16.1449983 127.679156,16.495 C127.279154,16.8450018 127.079156,17.3399968 127.079156,17.98 C127.079156,18.5200027 127.289154,19.0049978 127.709156,19.435 C128.129158,19.8650022 128.699152,20.08 129.419156,20.08 Z M147.585208,13.66 L153.855208,22 L150.315208,22 L145.605208,15.64 L143.595208,17.65 L143.595208,22 L140.805208,22 L140.805208,0.28 L143.595208,0.28 L143.595208,13.96 L149.835208,7.57 L153.735208,7.57 L147.585208,13.66 Z M168.39126,17.89 C168.191259,18.5300032 167.896262,19.1249972 167.50626,19.675 C167.116258,20.2250028 166.646263,20.7049979 166.09626,21.115 C165.546258,21.525002 164.921264,21.8499988 164.22126,22.09 C163.521257,22.3300012 162.751265,22.45 161.91126,22.45 C160.951256,22.45 160.031265,22.2800017 159.15126,21.94 C158.271256,21.5999983 157.496264,21.1000033 156.82626,20.44 C156.156257,19.7799967 155.626262,18.9700048 155.23626,18.01 C154.846258,17.0499952 154.65126,15.9600061 154.65126,14.74 C154.65126,13.5999943 154.841258,12.5650046 155.22126,11.635 C155.601262,10.7049954 156.106257,9.90500335 156.73626,9.235 C157.366264,8.56499665 158.101256,8.04500185 158.94126,7.675 C159.781265,7.30499815 160.651256,7.12 161.55126,7.12 C162.651266,7.12 163.636256,7.30499815 164.50626,7.675 C165.376265,8.04500185 166.101258,8.5599967 166.68126,9.22 C167.261263,9.8800033 167.706259,10.6749954 168.01626,11.605 C168.326262,12.5350047 168.48126,13.5599944 168.48126,14.68 C168.48126,14.8600009 168.47626,15.0299992 168.46626,15.19 C168.45626,15.3500008 168.44126,15.4799995 168.42126,15.58 L157.56126,15.58 C157.58126,16.2200032 157.701259,16.8099973 157.92126,17.35 C158.141262,17.8900027 158.446258,18.354998 158.83626,18.745 C159.226262,19.135002 159.686258,19.434999 160.21626,19.645 C160.746263,19.855001 161.311257,19.96 161.91126,19.96 C163.091266,19.96 163.991257,19.6800028 164.61126,19.12 C165.231264,18.5599972 165.681259,17.8700041 165.96126,17.05 L168.39126,17.89 Z M165.54126,13.3 C165.50126,12.2599948 165.151264,11.3850036 164.49126,10.675 C163.831257,9.96499645 162.861267,9.61 161.58126,9.61 C160.981257,9.61 160.446263,9.71499895 159.97626,9.925 C159.506258,10.135001 159.106262,10.4149982 158.77626,10.765 C158.446259,11.1150017 158.181261,11.5099978 157.98126,11.95 C157.781259,12.3900022 157.671261,12.8399977 157.65126,13.3 L165.54126,13.3 Z M173.297313,17.35 C173.397313,18.1100038 173.72731,18.7499974 174.287313,19.27 C174.847316,19.7900026 175.637308,20.05 176.657313,20.05 C177.457317,20.05 178.067311,19.8600019 178.487313,19.48 C178.907315,19.0999981 179.117313,18.6500026 179.117313,18.13 C179.117313,17.6699977 178.957314,17.2800016 178.637313,16.96 C178.317311,16.6399984 177.857316,16.4100007 177.257313,16.27 L174.797313,15.73 C173.657307,15.4899988 172.772316,15.0100036 172.142313,14.29 C171.51231,13.5699964 171.197313,12.7000051 171.197313,11.68 C171.197313,11.0599969 171.332311,10.4750028 171.602313,9.925 C171.872314,9.37499725 172.23731,8.8900021 172.697313,8.47 C173.157315,8.0499979 173.70231,7.7200012 174.332313,7.48 C174.962316,7.2399988 175.627309,7.12 176.327313,7.12 C177.307318,7.12 178.132309,7.2599986 178.802313,7.54 C179.472316,7.8200014 180.017311,8.16499795 180.437313,8.575 C180.857315,8.98500205 181.172312,9.4099978 181.382313,9.85 C181.592314,10.2900022 181.737312,10.6699984 181.817313,10.99 L179.327313,11.92 C179.287313,11.7399991 179.217313,11.5100014 179.117313,11.23 C179.017312,10.9499986 178.857314,10.6850012 178.637313,10.435 C178.417312,10.1849988 178.117315,9.9700009 177.737313,9.79 C177.357311,9.6099991 176.887316,9.52 176.327313,9.52 C175.607309,9.52 175.027315,9.71499805 174.587313,10.105 C174.147311,10.495002 173.927313,10.9399975 173.927313,11.44 C173.927313,12.3600046 174.477307,12.9399988 175.577313,13.18 L177.917313,13.69 C179.237319,13.9700014 180.232309,14.4849962 180.902313,15.235 C181.572316,15.9850038 181.907313,16.8999946 181.907313,17.98 C181.907313,18.5000026 181.797314,19.0199974 181.577313,19.54 C181.357312,20.0600026 181.032315,20.5399978 180.602313,20.98 C180.172311,21.4200022 179.627316,21.7749987 178.967313,22.045 C178.307309,22.3150014 177.527317,22.45 176.627313,22.45 C175.627308,22.45 174.772316,22.3100014 174.062313,22.03 C173.352309,21.7499986 172.762315,21.4000021 172.292313,20.98 C171.82231,20.5599979 171.462314,20.1050025 171.212313,19.615 C170.962311,19.1249976 170.807313,18.6700021 170.747313,18.25 L173.297313,17.35 Z M188.493365,22 L185.673365,22 L185.673365,0.28 L188.493365,0.28 L188.493365,9.25 C189.013368,8.4899962 189.663361,7.9500016 190.443365,7.63 C191.223369,7.3099984 192.033361,7.15 192.873365,7.15 C193.733369,7.15 194.488362,7.29499855 195.138365,7.585 C195.788368,7.87500145 196.328363,8.27499745 196.758365,8.785 C197.188367,9.29500255 197.508364,9.8999965 197.718365,10.6 C197.928366,11.3000035 198.033365,12.049996 198.033365,12.85 L198.033365,22 L195.213365,22 L195.213365,13.33 C195.213365,12.8299975 195.158366,12.3600022 195.048365,11.92 C194.938364,11.4799978 194.748366,11.0950017 194.478365,10.765 C194.208364,10.4349984 193.858367,10.1750009 193.428365,9.985 C192.998363,9.79499905 192.473368,9.7 191.853365,9.7 C191.313362,9.7 190.838367,9.799999 190.428365,10 C190.018363,10.200001 189.673366,10.4699983 189.393365,10.81 C189.113364,11.1500017 188.898366,11.5499977 188.748365,12.01 C188.598364,12.4700023 188.513365,12.9699973 188.493365,13.51 L188.493365,22 Z M208.729417,7.12 C209.809423,7.12 210.799413,7.31499805 211.699417,7.705 C212.599422,8.09500195 213.379414,8.6299966 214.039417,9.31 C214.699421,9.9900034 215.209416,10.7949954 215.569417,11.725 C215.929419,12.6550047 216.109417,13.6699945 216.109417,14.77 C216.109417,15.8700055 215.929419,16.8899953 215.569417,17.83 C215.209416,18.7700047 214.699421,19.5799966 214.039417,20.26 C213.379414,20.9400034 212.599422,21.474998 211.699417,21.865 C210.799413,22.255002 209.809423,22.45 208.729417,22.45 C207.649412,22.45 206.659422,22.255002 205.759417,21.865 C204.859413,21.474998 204.079421,20.9400034 203.419417,20.26 C202.759414,19.5799966 202.249419,18.7700047 201.889417,17.83 C201.529416,16.8899953 201.349417,15.8700055 201.349417,14.77 C201.349417,13.6699945 201.529416,12.6550047 201.889417,11.725 C202.249419,10.7949954 202.759414,9.9900034 203.419417,9.31 C204.079421,8.6299966 204.859413,8.09500195 205.759417,7.705 C206.659422,7.31499805 207.649412,7.12 208.729417,7.12 Z M208.729417,19.93 C209.32942,19.93 209.899415,19.8200011 210.439417,19.6 C210.97942,19.3799989 211.459415,19.0500022 211.879417,18.61 C212.299419,18.1699978 212.629416,17.6300032 212.869417,16.99 C213.109419,16.3499968 213.229417,15.6100042 213.229417,14.77 C213.229417,13.9299958 213.109419,13.1950031 212.869417,12.565 C212.629416,11.9349969 212.299419,11.4000022 211.879417,10.96 C211.459415,10.5199978 210.97942,10.1900011 210.439417,9.97 C209.899415,9.7499989 209.32942,9.64 208.729417,9.64 C208.129414,9.64 207.55942,9.7499989 207.019417,9.97 C206.479415,10.1900011 205.999419,10.5199978 205.579417,10.96 C205.159415,11.4000022 204.829419,11.9349969 204.589417,12.565 C204.349416,13.1950031 204.229417,13.9299958 204.229417,14.77 C204.229417,15.6100042 204.349416,16.3499968 204.589417,16.99 C204.829419,17.6300032 205.159415,18.1699978 205.579417,18.61 C205.999419,19.0500022 206.479415,19.3799989 207.019417,19.6 C207.55942,19.8200011 208.129414,19.93 208.729417,19.93 Z M219.72547,27.7 L219.72547,7.57 L222.45547,7.57 L222.45547,9.82 C222.855472,9.0999964 223.465466,8.4900025 224.28547,7.99 C225.105474,7.4899975 226.105464,7.24 227.28547,7.24 C228.365475,7.24 229.320466,7.43499805 230.15047,7.825 C230.980474,8.21500195 231.670467,8.7499966 232.22047,9.43 C232.770472,10.1100034 233.190468,10.9099954 233.48047,11.83 C233.770471,12.7500046 233.91547,13.7299948 233.91547,14.77 C233.91547,15.8500054 233.765471,16.8499954 233.46547,17.77 C233.165468,18.6900046 232.725473,19.4949965 232.14547,20.185 C231.565467,20.8750035 230.860474,21.4149981 230.03047,21.805 C229.200466,22.1950019 228.255475,22.39 227.19547,22.39 C226.075464,22.39 225.115474,22.1600023 224.31547,21.7 C223.515466,21.2399977 222.915472,20.6900032 222.51547,20.05 L222.51547,27.7 L219.72547,27.7 Z M231.03547,14.77 C231.03547,14.0499964 230.935471,13.385003 230.73547,12.775 C230.535469,12.164997 230.255471,11.6350022 229.89547,11.185 C229.535468,10.7349977 229.090472,10.3800013 228.56047,10.12 C228.030467,9.8599987 227.435473,9.73 226.77547,9.73 C226.135466,9.73 225.550472,9.8599987 225.02047,10.12 C224.490467,10.3800013 224.035472,10.7349977 223.65547,11.185 C223.275468,11.6350022 222.985471,12.164997 222.78547,12.775 C222.585469,13.385003 222.48547,14.0499964 222.48547,14.77 C222.48547,15.5100037 222.585469,16.1949968 222.78547,16.825 C222.985471,17.4550031 223.275468,17.9949977 223.65547,18.445 C224.035472,18.8950023 224.490467,19.2449988 225.02047,19.495 C225.550472,19.7450013 226.135466,19.87 226.77547,19.87 C227.435473,19.87 228.025467,19.7450013 228.54547,19.495 C229.065472,19.2449988 229.510468,18.8950023 229.88047,18.445 C230.250472,17.9949977 230.535469,17.4550031 230.73547,16.825 C230.935471,16.1949968 231.03547,15.5100037 231.03547,14.77 Z" id="Combined-Shape" fill="#9B9B9B"></path>
        </g>
    </g>
</svg>